<?xml version="1.0" encoding="UTF-8" standalone="no"?>
<!DOCTYPE svg PUBLIC "-//W3C//DTD SVG 1.1//EN" "http://www.w3.org/Graphics/SVG/1.1/DTD/svg11.dtd">
<svg xmlns:dc="http://purl.org/dc/elements/1.1/" xmlns:xl="http://www.w3.org/1999/xlink" version="1.1" xmlns="http://www.w3.org/2000/svg" viewBox="200 -310 271 331" width="271" height="331">
  <defs/>
  <metadata> Produced by OmniGraffle 7.8.2 
    <dc:date>2018-09-21 20:00:29 +0000</dc:date>
  </metadata>
  <g id="Logo" fill-opacity="1" stroke-dasharray="none" stroke="none" stroke-opacity="1" fill="none">
    <title>Logo</title>
    <g id="Logo: Layer 1">
      <title>Layer 1</title>
      <g id="Graphic_21">
        <path d="M 335.2143 -114.96429 L 428.7039 -21.474668 C 377.071 30.158223 293.35756 30.158223 241.72467 -21.474668 C 241.72467 -21.474668 241.72467 -21.474668 241.72467 -21.474668 Z" stroke="#00e7c7" stroke-linecap="round" stroke-linejoin="round" stroke-width="6"/>
      </g>
      <g id="Graphic_20">
        <path d="M 335.2143 -114.96429 L 438.5145 -87.28508 C 423.2277 -30.23395 364.5862 3.6227272 307.53508 -11.664077 C 270.62947 -21.552905 241.8029 -50.37947 231.91408 -87.28508 Z" fill="white"/>
        <path d="M 335.2143 -114.96429 L 438.5145 -87.28508 C 423.2277 -30.23395 364.5862 3.6227272 307.53508 -11.664077 C 270.62947 -21.552905 241.8029 -50.37947 231.91408 -87.28508 Z" stroke="#5e5e5e" stroke-linecap="round" stroke-linejoin="round" stroke-width="5"/>
      </g>
      <g id="Graphic_19">
        <path d="M 309.28383 -307 L 324.78383 -306.5 L 324.28383 -189 L 245.28383 -166.5 Z" fill="white"/>
        <path d="M 309.28383 -307 L 324.78383 -306.5 L 324.28383 -189 L 245.28383 -166.5 Z" stroke="#5e5e5e" stroke-linecap="round" stroke-linejoin="round" stroke-width="5"/>
      </g>
      <g id="Graphic_18">
        <path d="M 361.4342 -307 L 345.9342 -306.5 L 346.4342 -189 L 425.4342 -166.5 Z" fill="white"/>
        <path d="M 361.4342 -307 L 345.9342 -306.5 L 346.4342 -189 L 425.4342 -166.5 Z" stroke="#5e5e5e" stroke-linecap="round" stroke-linejoin="round" stroke-width="5"/>
      </g>
      <g id="Graphic_17">
        <path d="M 335.53008 -114.6485 L 436.61276 -141.73352 C 421.6541 -197.55995 364.27148 -230.68983 308.44505 -215.73118 C 272.3317 -206.05463 244.12394 -177.84689 234.4474 -141.73352 Z" fill="white"/>
        <path d="M 335.53008 -114.6485 L 436.61276 -141.73352 C 421.6541 -197.55995 364.27148 -230.68983 308.44505 -215.73118 C 272.3317 -206.05463 244.12394 -177.84689 234.4474 -141.73352 Z" stroke="#5e5e5e" stroke-linecap="round" stroke-linejoin="round" stroke-width="5"/>
      </g>
      <g id="Graphic_16">
        <circle cx="335.2143" cy="-114.96429" r="65.7501050620497" stroke="#797979" stroke-linecap="round" stroke-linejoin="round" stroke-width="5"/>
      </g>
      <g id="Graphic_15">
        <path d="M 335.2143 -114.96429 L 420.79216 -29.38641 C 373.5288 17.876944 296.89977 17.876944 249.6364 -29.38641 C 249.6364 -29.38641 249.6364 -29.38641 249.6364 -29.38641 Z" fill="white"/>
        <path d="M 335.2143 -114.96429 L 420.79216 -29.38641 C 373.5288 17.876944 296.89977 17.876944 249.6364 -29.38641 C 249.6364 -29.38641 249.6364 -29.38641 249.6364 -29.38641 Z" stroke="#929292" stroke-linecap="round" stroke-linejoin="round" stroke-width="5"/>
      </g>
      <g id="Graphic_14">
        <path d="M 427.17857 -214.4751 L 445.6888 -214.5 L 451.17857 -192.4751 L 450.82107 -158.5 L 355.32107 -125 L 330.32107 -146 L 420.82107 -175.5 L 421.82107 -192.5 Z" fill="white"/>
        <path d="M 427.17857 -214.4751 L 445.6888 -214.5 L 451.17857 -192.4751 L 450.82107 -158.5 L 355.32107 -125 L 330.32107 -146 L 420.82107 -175.5 L 421.82107 -192.5 Z" stroke="#929292" stroke-linecap="round" stroke-linejoin="round" stroke-width="5"/>
      </g>
      <g id="Graphic_13">
        <circle cx="335.07924" cy="-52.41944" r="9.08057610968078" stroke="#aaa" stroke-linecap="round" stroke-linejoin="round" stroke-width="5"/>
      </g>
      <g id="Graphic_12">
        <circle cx="335.07924" cy="-24.580562" r="9.08057610968078" stroke="#aaa" stroke-linecap="round" stroke-linejoin="round" stroke-width="5"/>
      </g>
      <g id="Graphic_11">
        <circle cx="362.25685" cy="-60.18374" r="9.08057610968082" stroke="#aaa" stroke-linecap="round" stroke-linejoin="round" stroke-width="5"/>
      </g>
      <g id="Graphic_10">
        <circle cx="372.5675" cy="-35.08056" r="9.0805761096808" stroke="#aaa" stroke-linecap="round" stroke-linejoin="round" stroke-width="5"/>
      </g>
      <g id="Graphic_9">
        <circle cx="297.59097" cy="-35.08056" r="9.08057610968082" stroke="#aaa" stroke-linecap="round" stroke-linejoin="round" stroke-width="5"/>
      </g>
      <g id="Graphic_8">
        <circle cx="307.90163" cy="-60.18374" r="9.0805761096808" stroke="#aaa" stroke-linecap="round" stroke-linejoin="round" stroke-width="5"/>
      </g>
      <g id="Graphic_7">
        <circle cx="297.59097" cy="-238.91944" r="9.08057610968084" stroke="#aaa" stroke-linecap="round" stroke-linejoin="round" stroke-width="5"/>
      </g>
      <g id="Graphic_6">
        <circle cx="372.5675" cy="-238.91944" r="9.08057610968082" stroke="#aaa" stroke-linecap="round" stroke-linejoin="round" stroke-width="5"/>
      </g>
      <g id="Graphic_5">
        <path d="M 318.53008 -239.66427 L 352.53008 -239.66427 L 357.32107 -160.5 L 313.82107 -160.66427 Z" fill="white"/>
        <path d="M 318.53008 -239.66427 L 352.53008 -239.66427 L 357.32107 -160.5 L 313.82107 -160.66427 Z" stroke="#929292" stroke-linecap="round" stroke-linejoin="round" stroke-width="5"/>
      </g>
      <g id="Graphic_4">
        <rect x="235.35168" y="-132.3985" width="200.35678" height="35.398496" fill="white"/>
        <rect x="235.35168" y="-132.3985" width="200.35678" height="35.398496" stroke="#929292" stroke-linecap="round" stroke-linejoin="round" stroke-width="5"/>
      </g>
      <g id="Graphic_3">
        <circle cx="335.2143" cy="-114.96429" r="32.4643375890292" fill="white"/>
        <circle cx="335.2143" cy="-114.96429" r="32.4643375890292" stroke="#929292" stroke-linecap="round" stroke-linejoin="round" stroke-width="5"/>
      </g>
      <g id="Graphic_2">
        <circle cx="335.07924" cy="-114.6485" r="14.8504398068769" stroke="#929292" stroke-linecap="round" stroke-linejoin="round" stroke-width="5"/>
      </g>
    </g>
  </g>
</svg>
